<mxfile host="Electron" modified="2024-04-01T04:43:21.597Z" agent="Mozilla/5.0 (Windows NT 10.0; Win64; x64) AppleWebKit/537.36 (KHTML, like Gecko) draw.io/24.1.0 Chrome/120.0.6099.109 Electron/28.1.0 Safari/537.36" etag="mfJatJys5xyCz8M7pfZB" version="24.1.0" type="device">
  <diagram name="Page-1" id="E07TJvVMOKgvardUGVi9">
    <mxGraphModel dx="1274" dy="1106" grid="1" gridSize="10" guides="1" tooltips="1" connect="1" arrows="1" fold="1" page="1" pageScale="1" pageWidth="827" pageHeight="1169" math="0" shadow="0">
      <root>
        <mxCell id="0" />
        <mxCell id="1" parent="0" />
        <mxCell id="o_OF8pmNo33BeXqRKg7h-1" value="Stage 1" style="rounded=1;whiteSpace=wrap;html=1;strokeWidth=2;fontFamily=IBM Plex sans;fillColor=#65489D;fontColor=#ffffff;strokeColor=none;" vertex="1" parent="1">
          <mxGeometry x="67" y="70" width="120" height="60" as="geometry" />
        </mxCell>
        <mxCell id="o_OF8pmNo33BeXqRKg7h-7" style="edgeStyle=orthogonalEdgeStyle;rounded=0;orthogonalLoop=1;jettySize=auto;html=1;entryX=0;entryY=0.5;entryDx=0;entryDy=0;exitX=0.876;exitY=0.5;exitDx=0;exitDy=0;exitPerimeter=0;strokeWidth=2;strokeColor=default;align=center;verticalAlign=middle;fontFamily=Helvetica;fontSize=11;fontColor=default;labelBackgroundColor=default;endArrow=blockThin;endFill=1;" edge="1" parent="1" source="o_OF8pmNo33BeXqRKg7h-2" target="o_OF8pmNo33BeXqRKg7h-3">
          <mxGeometry relative="1" as="geometry" />
        </mxCell>
        <mxCell id="o_OF8pmNo33BeXqRKg7h-2" value="" style="shape=mxgraph.pid.heat_exchangers.condenser;html=1;pointerEvents=1;align=center;verticalLabelPosition=bottom;verticalAlign=middle;dashed=0;strokeWidth=2;rounded=0;strokeColor=default;fontFamily=Helvetica;fontSize=11;fontColor=default;labelBackgroundColor=default;fillColor=none;" vertex="1" parent="1">
          <mxGeometry x="244" y="75" width="50" height="50" as="geometry" />
        </mxCell>
        <mxCell id="o_OF8pmNo33BeXqRKg7h-3" value="&lt;span style=&quot;font-family: &amp;quot;IBM Plex sans&amp;quot;;&quot;&gt;Stage 2&lt;/span&gt;" style="rounded=1;whiteSpace=wrap;html=1;strokeWidth=2;fillColor=#65489D;fontColor=#ffffff;strokeColor=none;align=center;verticalAlign=middle;fontFamily=IBM Plex sans;fontSize=12;" vertex="1" parent="1">
          <mxGeometry x="352" y="70" width="120" height="60" as="geometry" />
        </mxCell>
        <mxCell id="o_OF8pmNo33BeXqRKg7h-4" value="&lt;span style=&quot;font-family: &amp;quot;IBM Plex sans&amp;quot;;&quot;&gt;Stage 3&lt;/span&gt;" style="rounded=1;whiteSpace=wrap;html=1;strokeWidth=2;fillColor=#65489D;fontColor=#ffffff;strokeColor=none;align=center;verticalAlign=middle;fontFamily=IBM Plex sans;fontSize=12;" vertex="1" parent="1">
          <mxGeometry x="637" y="70" width="120" height="60" as="geometry" />
        </mxCell>
        <mxCell id="o_OF8pmNo33BeXqRKg7h-9" style="edgeStyle=orthogonalEdgeStyle;rounded=0;orthogonalLoop=1;jettySize=auto;html=1;entryX=0;entryY=0.5;entryDx=0;entryDy=0;exitX=0.876;exitY=0.5;exitDx=0;exitDy=0;exitPerimeter=0;strokeWidth=2;strokeColor=default;align=center;verticalAlign=middle;fontFamily=Helvetica;fontSize=11;fontColor=default;labelBackgroundColor=default;endArrow=blockThin;endFill=1;" edge="1" parent="1" source="o_OF8pmNo33BeXqRKg7h-5" target="o_OF8pmNo33BeXqRKg7h-4">
          <mxGeometry relative="1" as="geometry" />
        </mxCell>
        <mxCell id="o_OF8pmNo33BeXqRKg7h-5" value="" style="shape=mxgraph.pid.heat_exchangers.condenser;html=1;pointerEvents=1;align=center;verticalLabelPosition=bottom;verticalAlign=top;dashed=0;strokeWidth=2;fillColor=none;" vertex="1" parent="1">
          <mxGeometry x="530" y="75" width="50" height="50" as="geometry" />
        </mxCell>
        <mxCell id="o_OF8pmNo33BeXqRKg7h-6" style="edgeStyle=orthogonalEdgeStyle;rounded=0;orthogonalLoop=1;jettySize=auto;html=1;entryX=0.124;entryY=0.5;entryDx=0;entryDy=0;entryPerimeter=0;strokeWidth=2;strokeColor=default;align=center;verticalAlign=middle;fontFamily=Helvetica;fontSize=11;fontColor=default;labelBackgroundColor=default;endArrow=blockThin;endFill=1;" edge="1" parent="1" source="o_OF8pmNo33BeXqRKg7h-1" target="o_OF8pmNo33BeXqRKg7h-2">
          <mxGeometry relative="1" as="geometry" />
        </mxCell>
        <mxCell id="o_OF8pmNo33BeXqRKg7h-8" style="edgeStyle=orthogonalEdgeStyle;rounded=0;orthogonalLoop=1;jettySize=auto;html=1;entryX=0.124;entryY=0.5;entryDx=0;entryDy=0;entryPerimeter=0;strokeWidth=2;strokeColor=default;align=center;verticalAlign=middle;fontFamily=Helvetica;fontSize=11;fontColor=default;labelBackgroundColor=default;endArrow=blockThin;endFill=1;" edge="1" parent="1" source="o_OF8pmNo33BeXqRKg7h-3" target="o_OF8pmNo33BeXqRKg7h-5">
          <mxGeometry relative="1" as="geometry" />
        </mxCell>
        <mxCell id="o_OF8pmNo33BeXqRKg7h-14" style="edgeStyle=orthogonalEdgeStyle;rounded=0;orthogonalLoop=1;jettySize=auto;html=1;entryX=0;entryY=0.5;entryDx=0;entryDy=0;exitX=0.876;exitY=0.5;exitDx=0;exitDy=0;exitPerimeter=0;strokeWidth=2;strokeColor=default;align=center;verticalAlign=middle;fontFamily=Helvetica;fontSize=11;fontColor=default;labelBackgroundColor=default;endArrow=blockThin;endFill=1;" edge="1" parent="1">
          <mxGeometry relative="1" as="geometry">
            <mxPoint x="757" y="99.92" as="sourcePoint" />
            <mxPoint x="809" y="99.92" as="targetPoint" />
          </mxGeometry>
        </mxCell>
        <mxCell id="o_OF8pmNo33BeXqRKg7h-15" style="edgeStyle=orthogonalEdgeStyle;rounded=0;orthogonalLoop=1;jettySize=auto;html=1;entryX=0;entryY=0.5;entryDx=0;entryDy=0;exitX=0.876;exitY=0.5;exitDx=0;exitDy=0;exitPerimeter=0;strokeWidth=2;endArrow=blockThin;endFill=1;" edge="1" parent="1">
          <mxGeometry relative="1" as="geometry">
            <mxPoint x="15" y="99.86" as="sourcePoint" />
            <mxPoint x="67" y="99.86" as="targetPoint" />
          </mxGeometry>
        </mxCell>
        <mxCell id="o_OF8pmNo33BeXqRKg7h-16" value="T&lt;sub&gt;0&lt;/sub&gt;" style="text;html=1;align=center;verticalAlign=middle;resizable=0;points=[];autosize=1;strokeColor=none;fillColor=none;fontColor=#388ECC;" vertex="1" parent="1">
          <mxGeometry x="10" y="106" width="40" height="30" as="geometry" />
        </mxCell>
        <mxCell id="o_OF8pmNo33BeXqRKg7h-17" value="T&lt;span style=&quot;font-size: 10px;&quot;&gt;&lt;sub&gt;1&lt;/sub&gt;&lt;/span&gt;" style="text;html=1;align=center;verticalAlign=middle;resizable=0;points=[];autosize=1;strokeColor=none;fillColor=none;fontColor=#9F1D54;" vertex="1" parent="1">
          <mxGeometry x="187" y="106" width="40" height="30" as="geometry" />
        </mxCell>
        <mxCell id="o_OF8pmNo33BeXqRKg7h-18" value="X&lt;span style=&quot;font-size: 10px;&quot;&gt;&lt;sub&gt;1&lt;/sub&gt;&lt;/span&gt;" style="text;html=1;align=center;verticalAlign=middle;resizable=0;points=[];autosize=1;strokeColor=none;fillColor=none;fontColor=#9F1D54;" vertex="1" parent="1">
          <mxGeometry x="187" y="66" width="40" height="30" as="geometry" />
        </mxCell>
        <mxCell id="o_OF8pmNo33BeXqRKg7h-19" value="T&lt;span style=&quot;font-size: 10px;&quot;&gt;&lt;sub&gt;2&lt;/sub&gt;&lt;/span&gt;" style="text;html=1;align=center;verticalAlign=middle;resizable=0;points=[];autosize=1;strokeColor=none;fillColor=none;fontColor=#9F1D54;" vertex="1" parent="1">
          <mxGeometry x="480" y="105" width="40" height="30" as="geometry" />
        </mxCell>
        <mxCell id="o_OF8pmNo33BeXqRKg7h-20" value="X&lt;span style=&quot;font-size: 10px;&quot;&gt;&lt;sub&gt;2&lt;/sub&gt;&lt;/span&gt;" style="text;html=1;align=center;verticalAlign=middle;resizable=0;points=[];autosize=1;strokeColor=none;fillColor=none;fontColor=#9F1D54;" vertex="1" parent="1">
          <mxGeometry x="480" y="65" width="40" height="30" as="geometry" />
        </mxCell>
        <mxCell id="o_OF8pmNo33BeXqRKg7h-22" value="T&lt;span style=&quot;font-size: 10px;&quot;&gt;&lt;sub&gt;3&lt;/sub&gt;&lt;/span&gt;" style="text;html=1;align=center;verticalAlign=middle;resizable=0;points=[];autosize=1;strokeColor=none;fillColor=none;fontColor=#9F1D54;" vertex="1" parent="1">
          <mxGeometry x="770" y="105" width="40" height="30" as="geometry" />
        </mxCell>
        <mxCell id="o_OF8pmNo33BeXqRKg7h-23" value="X&lt;span style=&quot;font-size: 10px;&quot;&gt;&lt;sub&gt;3&lt;/sub&gt;&lt;/span&gt;" style="text;html=1;align=center;verticalAlign=middle;resizable=0;points=[];autosize=1;strokeColor=none;fillColor=none;fontColor=#9F1D54;" vertex="1" parent="1">
          <mxGeometry x="770" y="65" width="40" height="30" as="geometry" />
        </mxCell>
        <mxCell id="o_OF8pmNo33BeXqRKg7h-24" value="T&lt;sub&gt;0&lt;/sub&gt;" style="text;html=1;align=center;verticalAlign=middle;resizable=0;points=[];autosize=1;strokeColor=none;fillColor=none;fontColor=#388ECC;" vertex="1" parent="1">
          <mxGeometry x="300" y="105" width="40" height="30" as="geometry" />
        </mxCell>
        <mxCell id="o_OF8pmNo33BeXqRKg7h-25" value="T&lt;sub&gt;0&lt;/sub&gt;" style="text;html=1;align=center;verticalAlign=middle;resizable=0;points=[];autosize=1;strokeColor=none;fillColor=none;fontColor=#388ECC;" vertex="1" parent="1">
          <mxGeometry x="590" y="106" width="40" height="30" as="geometry" />
        </mxCell>
      </root>
    </mxGraphModel>
  </diagram>
</mxfile>
